<svg width="102" height="93" viewBox="0 0 102 93" fill="none" xmlns="http://www.w3.org/2000/svg">
<path d="M99.1761 33.1702L96.4482 33.2862C97.7227 37.286 98.6829 42.1899 98.6829 46.3898C98.6601 57.2265 94.2529 67.6705 86.3138 75.702C78.3747 83.7334 67.4678 88.7816 55.7023 89.8703C43.9368 90.959 32.1487 88.0108 22.6179 81.596C13.087 75.1811 6.49049 65.7553 4.10409 55.1415C1.71768 44.5277 3.71093 33.48 9.69835 24.135C15.6858 14.7899 25.242 7.81153 36.5188 4.54939C47.7956 1.28726 59.9918 1.97316 70.7487 6.47441C81.5057 10.9757 90.059 18.9725 94.7546 28.9183H75.3489V31.2822H98.5432L97.8623 29.6823C93.315 18.8924 84.5339 10.048 73.2404 4.88298C61.9469 -0.282052 48.9555 -1.39527 36.8129 1.76154C24.6703 4.91834 14.2522 12.1175 7.60084 21.9478C0.949489 31.7781 -1.45543 43.5305 0.857528 54.9013C3.17049 66.2721 10.0345 76.4412 20.1041 83.4151C30.1736 90.389 42.7225 93.6649 55.2907 92.6004C67.8589 91.536 79.5401 86.2081 88.0444 77.6611C96.5487 69.1141 101.263 57.9644 101.262 46.3978C101.244 41.9209 100.542 37.4685 99.1761 33.1702Z" fill="black"/>
<path d="M75.3489 27.7744V32.1263C75.353 32.1635 75.353 32.201 75.3489 32.2383C75.3189 32.3752 75.2382 32.4985 75.1206 32.5874C75.0029 32.6763 74.8554 32.7253 74.703 32.7263H65.7247C65.551 32.7263 65.3845 32.663 65.2617 32.5505C65.1389 32.438 65.0699 32.2854 65.0699 32.1263V27.7744C65.0699 27.6149 65.1388 27.4619 65.2614 27.3487C65.3841 27.2356 65.5506 27.1715 65.7247 27.1704H74.6724C74.8369 27.17 74.9954 27.2267 75.1161 27.3291C75.2368 27.4315 75.3106 27.5721 75.3228 27.7224C75.3341 27.7385 75.3429 27.756 75.3489 27.7744Z" fill="black"/>
<path d="M89.2986 32.7022H77.1122V33.2102C77.1111 33.3665 77.0425 33.5161 76.9215 33.6262C76.8005 33.7364 76.6368 33.7982 76.4663 33.7982H64.1446C63.9744 33.7982 63.8112 33.7363 63.6909 33.626C63.5705 33.5157 63.5029 33.3662 63.5029 33.2102V26.5064C63.5024 26.4289 63.5185 26.352 63.5505 26.2802C63.5825 26.2084 63.6297 26.1431 63.6893 26.0881C63.749 26.033 63.8199 25.9894 63.898 25.9596C63.9761 25.9298 64.0599 25.9144 64.1446 25.9144H76.4663C76.6376 25.9144 76.8019 25.9768 76.923 26.0878C77.0442 26.1988 77.1122 26.3494 77.1122 26.5064V27.2784H86.3874C76.475 12.0428 55.5198 4.19105 35.2586 11.3828C21.5445 16.2507 9.7466 31.3543 9.16609 44.8219C7.92213 73.621 39.619 93.4204 68.7712 81.1168C74.921 78.5184 80.2573 74.542 84.2875 69.5548C88.3176 64.5675 90.9117 58.7302 91.8302 52.5816C92.8763 45.866 92.004 39.0166 89.2986 32.7022ZM29.1567 70.8811C26.2724 68.7727 23.8725 66.1616 22.0955 63.1985C20.3185 60.2355 19.1996 56.9791 18.8035 53.6176L21.933 53.3016C22.6573 59.3266 25.9635 64.8411 31.1244 68.6322C36.2853 72.4233 42.8782 74.1804 49.4528 73.517L49.7976 76.381C46.1312 76.7601 42.4191 76.4693 38.8761 75.5253C35.3332 74.5812 32.0296 73.0027 29.1567 70.8811ZM26.9961 51.9057L30.7498 51.5257C30.997 53.584 31.6843 55.5775 32.7723 57.3924C33.8603 59.2074 35.3277 60.8081 37.0908 62.1033C38.8539 63.3985 40.8781 64.3627 43.0479 64.9409C45.2176 65.5191 47.4904 65.7 49.7365 65.4733L50.1512 68.9092C44.6213 69.4628 39.0775 67.9834 34.7365 64.7956C30.3955 61.6078 27.6118 56.9721 26.9961 51.9057ZM63.7474 49.1057C63.4348 50.817 62.7033 52.4412 61.608 53.8565C60.5127 55.2717 59.0818 56.4413 57.4228 57.2775C47.301 62.3654 35.7387 54.8456 37.6374 44.4139C37.9502 42.7016 38.6821 41.0765 39.7782 39.6606C40.8743 38.2446 42.3062 37.0745 43.9663 36.2381C54.0838 31.1583 65.646 38.6741 63.7605 49.1097L63.7474 49.1057Z" fill="black"/>
</svg>
