<svg width="56" height="98" viewBox="0 0 56 98" fill="none" xmlns="http://www.w3.org/2000/svg">
<path d="M53.5295 19.2475H54.2278C54.664 19.2496 55.0835 19.0943 55.3956 18.815C55.7077 18.5358 55.8872 18.1551 55.8952 17.7555L55.9345 14.6236C55.9391 14.2229 55.7705 13.8368 55.4654 13.5497C55.1604 13.2627 54.7436 13.098 54.3064 13.0916H53.6081C53.1712 13.0895 52.751 13.2454 52.4388 13.5255C52.1266 13.8056 51.9476 14.1873 51.9407 14.5876V15.0716L48.5711 15.0356L48.7064 4.72388C48.7105 4.39481 48.6312 4.06935 48.4745 3.7732C48.3179 3.47706 48.0883 3.21833 47.8039 3.01741C47.5195 2.8165 47.188 2.6789 46.8356 2.61547C46.4832 2.55205 46.1195 2.56454 45.7733 2.65195C44.4115 2.99994 43.0453 3.45192 41.6835 3.52392C41.3302 3.54154 40.9773 3.48262 40.6535 3.35193C37.9298 2.29596 33.7528 -0.00797899 28.55 2.07791e-05C23.9233 2.07791e-05 20.1085 2.05996 17.4941 3.04393C17.087 3.19849 16.6397 3.24156 16.2064 3.16792L10.4362 2.20794C10.1046 2.15264 9.7637 2.16435 9.43744 2.24219C9.11119 2.32004 8.8074 2.46215 8.54726 2.65866C8.28711 2.85517 8.07685 3.10133 7.9312 3.37995C7.78554 3.65858 7.70798 3.96297 7.7039 4.27189L7.57296 14.5676L4.37359 14.5356V14.0476C4.3771 13.6476 4.20795 13.2625 3.90299 12.9763C3.59803 12.6901 3.182 12.526 2.74554 12.5197H2.05154C1.61422 12.5175 1.19358 12.6733 0.880691 12.9533C0.567805 13.2333 0.387854 13.6149 0.379826 14.0156L0.340558 17.1475C0.337048 17.5475 0.506202 17.9326 0.81116 18.2188C1.11612 18.505 1.53215 18.6692 1.9686 18.6755H2.66698C3.10348 18.6787 3.52364 18.5237 3.83596 18.2442C4.14828 17.9648 4.3274 17.5835 4.3343 17.1835V17.0435L7.53367 17.0755L7.40273 27.4752L4.20336 27.4432V26.9552C4.20687 26.5552 4.03771 26.1702 3.73276 25.884C3.4278 25.5978 3.01177 25.4336 2.57531 25.4273H1.87696C1.44006 25.4251 1.01985 25.581 0.707662 25.8611C0.395471 26.1412 0.216513 26.5229 0.209621 26.9232L0.170326 30.0552C0.165665 30.4555 0.334447 30.8411 0.639649 31.1276C0.944852 31.414 1.36155 31.5778 1.79837 31.5831H2.49675C2.93291 31.5853 3.35244 31.4299 3.6645 31.1507C3.97657 30.8714 4.15606 30.4908 4.16409 30.0911V29.9391L7.36344 29.9712L7.2325 40.3709L4.03313 40.3388V39.8509C4.0355 39.4512 3.86599 39.0667 3.56127 38.7807C3.25656 38.4947 2.84117 38.3303 2.40508 38.3229H1.70673C1.26983 38.3208 0.849648 38.4767 0.537457 38.7568C0.225266 39.0369 0.0462807 39.4185 0.0393886 39.8189L9.40228e-05 42.9508C-0.00456672 43.3511 0.164215 43.7368 0.469417 44.0232C0.77462 44.3097 1.19134 44.4735 1.62817 44.4787H2.32652C2.76267 44.4809 3.1822 44.3256 3.49427 44.0463C3.80634 43.7671 3.98583 43.3864 3.99386 42.9868V42.8348L7.19323 42.8668L7.04482 54.3984C7.04136 54.6764 7.09803 54.9522 7.21159 55.21C7.32514 55.4678 7.49333 55.7024 7.70641 55.9003C7.91948 56.0981 8.17321 56.2554 8.45298 56.3628C8.73274 56.4703 9.03297 56.5259 9.33632 56.5264C10.5723 56.5258 11.7962 56.7501 12.9369 57.1863C14.0776 57.6225 15.1124 58.2619 15.9813 59.0675C16.8502 59.8731 17.5359 60.8288 17.9986 61.8791C18.4614 62.9294 18.6919 64.0535 18.6769 65.1861L18.5547 74.7659V91.3374C18.5547 91.3766 18.5632 91.4154 18.5797 91.4516C18.5962 91.4877 18.6204 91.5206 18.6508 91.5481C18.6813 91.5756 18.7174 91.5973 18.7571 91.612C18.7968 91.6266 18.8393 91.6339 18.882 91.6334H20.6279C20.714 91.6334 20.7966 91.6023 20.8579 91.5469C20.9192 91.4915 20.9542 91.4162 20.9553 91.3374V74.7898L25.9791 74.8459V96.8452C25.9791 96.8844 25.9876 96.9232 26.0041 96.9594C26.0206 96.9956 26.0448 97.0284 26.0753 97.056C26.1057 97.0835 26.1419 97.1052 26.1816 97.1198C26.2212 97.1345 26.2637 97.1417 26.3065 97.1412H28.0524C28.1385 97.1412 28.2211 97.1102 28.2824 97.0548C28.3436 96.9994 28.3786 96.9241 28.3798 96.8452V74.8459L33.5825 74.9059V91.3054C33.5825 91.3839 33.6166 91.4592 33.6771 91.5147C33.7377 91.5702 33.8199 91.6014 33.9055 91.6014H35.6514C35.7371 91.6014 35.8193 91.5702 35.8798 91.5147C35.9404 91.4592 35.9744 91.3839 35.9744 91.3054V74.9059L36.0966 65.5341C36.1265 63.2275 37.1471 61.0247 38.9372 59.4029C40.7273 57.7812 43.1426 56.8713 45.6598 56.8704H45.6904C46.3002 56.8694 46.8852 56.6486 47.3188 56.2556C47.7525 55.8627 48 55.3292 48.0081 54.7704L48.1565 43.2868L51.5217 43.3228V43.4748C51.5171 43.8751 51.6858 44.2608 51.991 44.5472C52.2962 44.8336 52.7129 44.9975 53.1498 45.0027H53.8437C54.2806 45.006 54.7013 44.8511 55.0143 44.5717C55.3273 44.2924 55.5074 43.9111 55.5155 43.5107L55.5547 40.3789C55.5583 39.9785 55.3892 39.593 55.0844 39.3061C54.7795 39.0193 54.3635 38.8543 53.9267 38.8469H53.2283C52.7911 38.8437 52.3703 38.9992 52.0578 39.2796C51.7454 39.5599 51.5667 39.9422 51.561 40.3428V40.8268L48.1914 40.7908L48.3267 30.3911L51.6919 30.4271V30.6431C51.6873 31.0434 51.856 31.4291 52.1612 31.7156C52.4664 32.002 52.8832 32.1658 53.32 32.1711H54.0183C54.4545 32.1733 54.874 32.0179 55.1861 31.7387C55.4982 31.4594 55.6777 31.0788 55.6857 30.6791L55.725 27.5472C55.7285 27.1468 55.5595 26.7613 55.2546 26.4745C54.9498 26.1877 54.5338 26.0226 54.0969 26.0153H53.3985C52.9616 26.0131 52.5415 26.169 52.2293 26.4491C51.9171 26.7292 51.7381 27.1109 51.7312 27.5112V27.9952L48.3616 27.9592L48.4969 17.5595L51.8622 17.5955V17.7475C51.8668 18.1489 52.0449 18.5322 52.3574 18.8134C52.67 19.0946 53.0915 19.2507 53.5295 19.2475ZM14.7399 44.1187C14.1334 44.1187 13.5406 43.9532 13.0371 43.6433C12.5336 43.3335 12.1421 42.8933 11.9125 42.3789C11.6828 41.8645 11.6255 41.2991 11.7477 40.7547C11.8699 40.2103 12.1661 39.7115 12.5986 39.3219C13.0312 38.9323 13.5805 38.6695 14.1766 38.567C14.7727 38.4644 15.3886 38.5268 15.9459 38.7461C16.5032 38.9654 16.9766 39.3317 17.306 39.7984C17.6353 40.2651 17.8056 40.8111 17.7952 41.3668C17.7815 42.1011 17.4535 42.801 16.882 43.3157C16.3105 43.8305 15.5412 44.1189 14.7399 44.1187ZM14.9058 31.4391C14.2993 31.439 13.7065 31.2735 13.203 30.9637C12.6995 30.6539 12.308 30.2137 12.0783 29.6993C11.8487 29.1849 11.7913 28.6195 11.9135 28.0751C12.0357 27.5307 12.332 27.0319 12.7645 26.6423C13.1971 26.2527 13.7464 25.9899 14.3424 25.8873C14.9385 25.7848 15.5544 25.8471 16.1117 26.0664C16.669 26.2857 17.1425 26.6521 17.4718 27.1188C17.8012 27.5855 17.9715 28.1315 17.9611 28.6872C17.9485 29.4235 17.6198 30.1256 17.0463 30.6415C16.4728 31.1573 15.7006 31.4453 14.897 31.4431L14.9058 31.4391ZM15.0672 18.7595C14.4607 18.7594 13.868 18.5939 13.3645 18.2841C12.861 17.9742 12.4695 17.5341 12.2398 17.0196C12.0102 16.5052 11.9528 15.9398 12.075 15.3954C12.1972 14.851 12.4934 14.3523 12.926 13.9627C13.3586 13.5731 13.9079 13.3103 14.5039 13.2077C15.1 13.1052 15.7159 13.1675 16.2732 13.3868C16.8305 13.6061 17.304 13.9724 17.6333 14.4391C17.9627 14.9058 18.133 15.4518 18.1226 16.0075C18.1088 16.7432 17.7797 17.4443 17.2063 17.9592C16.6329 18.4742 15.8613 18.7617 15.0585 18.7595H15.0672ZM40.8455 44.4027C40.24 44.3987 39.6494 44.2298 39.1488 43.9176C38.6481 43.6054 38.26 43.1639 38.0337 42.6491C37.8075 42.1344 37.7532 41.5696 37.8779 41.0265C38.0025 40.4835 38.3005 39.9866 38.7339 39.599C39.1672 39.2114 39.7165 38.9506 40.312 38.8497C40.9075 38.7487 41.5222 38.8122 42.0783 39.0321C42.6343 39.252 43.1064 39.6183 43.4348 40.0845C43.7632 40.5508 43.933 41.096 43.9227 41.6508C43.9089 42.3899 43.5767 43.094 42.9986 43.6096C42.4205 44.1251 41.6434 44.4102 40.8368 44.4027H40.8455ZM41.007 31.7231C40.4014 31.7191 39.8109 31.5502 39.3102 31.238C38.8096 30.9257 38.4215 30.4842 38.1953 29.9695C37.969 29.4547 37.9147 28.89 38.0394 28.3469C38.164 27.8038 38.462 27.307 38.8954 26.9194C39.3287 26.5318 39.878 26.271 40.4735 26.17C41.069 26.0691 41.6837 26.1326 42.2398 26.3525C42.7958 26.5723 43.2679 26.9386 43.5963 27.4049C43.9247 27.8712 44.0945 28.4163 44.0841 28.9712C44.0704 29.7103 43.7382 30.4144 43.1601 30.9299C42.582 31.4455 41.8049 31.7306 40.9983 31.7231H41.007ZM41.1729 19.0435C40.5665 19.0434 39.9739 18.878 39.4705 18.5684C38.9671 18.2587 38.5756 17.8188 38.3458 17.3046C38.116 16.7904 38.0584 16.2252 38.1802 15.6809C38.3021 15.1366 38.5979 14.6379 39.03 14.2481C39.4621 13.8583 40.011 13.5952 40.6068 13.4922C41.2026 13.3891 41.8183 13.4509 42.3757 13.6696C42.9331 13.8883 43.4069 14.254 43.7368 14.7202C44.0667 15.1864 44.2377 15.732 44.2282 16.2875C44.2156 17.0239 43.8869 17.726 43.3134 18.2418C42.7399 18.7577 41.9677 19.0457 41.1641 19.0435H41.1729Z" fill="black"/>
</svg>
