<svg width="75" height="91" viewBox="0 0 75 91" fill="none" xmlns="http://www.w3.org/2000/svg">
<path d="M2.09343 2.04642L0.0490689 87.1346C0.0360561 87.6762 0.22074 88.2004 0.562495 88.5918C0.90425 88.9832 1.37508 89.2098 1.87141 89.2217L70.6496 90.8742C71.1456 90.885 71.6262 90.6809 71.9861 90.3066C72.346 89.9323 72.556 89.4183 72.57 88.8771L74.1959 21.2079C74.2023 20.9397 74.1603 20.673 74.0722 20.423C73.9841 20.173 73.8517 19.9446 73.6825 19.7508C73.5132 19.557 73.3106 19.4016 73.086 19.2935C72.8614 19.1854 72.6193 19.1267 72.3736 19.1208L48.0533 18.5365C47.8075 18.5306 47.5654 18.4719 47.3409 18.3638C47.1163 18.2557 46.9136 18.1004 46.7444 17.9066C46.5751 17.7128 46.4427 17.4844 46.3546 17.2343C46.2665 16.9843 46.2245 16.7176 46.2309 16.4494L46.5514 3.11021C46.5634 2.56894 46.3783 2.04542 46.0368 1.65427C45.6953 1.26313 45.2251 1.03618 44.7291 1.02311L4.01401 0.044879C3.76791 0.0389663 3.52296 0.0860672 3.29318 0.183504C3.0634 0.280941 2.85329 0.426793 2.6749 0.612709C2.4965 0.798625 2.35332 1.02097 2.25354 1.26698C2.15377 1.51299 2.09936 1.77787 2.09343 2.04642ZM63.8519 24.9237C64.3479 24.9368 64.8181 25.1638 65.1597 25.5549C65.5012 25.9461 65.6862 26.4695 65.6743 27.0108L64.3593 81.7422C64.3452 82.2834 64.1353 82.7974 63.7754 83.1717C63.4154 83.546 62.9349 83.7501 62.4388 83.7393L49.6029 83.4309C49.1066 83.419 48.6357 83.1924 48.294 82.801C47.9522 82.4096 47.7675 81.8855 47.7806 81.3438L49.0955 26.6168C49.1085 26.0752 49.3181 25.5606 49.6783 25.186C50.0384 24.8115 50.5196 24.6077 51.0159 24.6197L63.8519 24.9237ZM42.9866 24.4224C43.4825 24.4355 43.9528 24.6624 44.2943 25.0536C44.6358 25.4447 44.8209 25.9682 44.8089 26.5095L43.4939 81.2409C43.4799 81.7821 43.2699 82.2961 42.91 82.6704C42.55 83.0447 42.0695 83.2488 41.5734 83.238L28.7375 82.9296C28.2412 82.9177 27.7704 82.6911 27.4286 82.2997C27.0869 81.9083 26.9022 81.3841 26.9152 80.8425L28.2301 26.1155C28.2431 25.5739 28.4527 25.0593 28.8129 24.6847C29.173 24.3102 29.6542 24.1064 30.1505 24.1183L42.9866 24.4224ZM22.1172 23.921C22.6139 23.9329 23.0851 24.1594 23.4275 24.5507C23.7699 24.942 23.9555 25.4661 23.9435 26.0082L22.6285 80.7395C22.6145 81.2815 22.4039 81.7962 22.0431 82.1706C21.6823 82.545 21.2008 82.7485 20.7041 82.7366L7.86015 82.428C7.36418 82.4149 6.89397 82.188 6.55244 81.7968C6.2109 81.4057 6.02586 80.8822 6.03781 80.3409L7.3527 25.6139C7.36676 25.0727 7.57673 24.5587 7.93666 24.1844C8.29658 23.8101 8.77714 23.606 9.27317 23.6167L22.1172 23.921Z" fill="black"/>
<path d="M19.9791 54.2965L20.7095 23.8959L31.506 24.1553L30.7756 54.5559C30.7626 55.0975 30.553 55.6121 30.1928 55.9867C29.8327 56.3612 29.3515 56.5649 28.8552 56.553L21.8134 56.3838C21.5666 56.3796 21.3232 56.3222 21.0972 56.2149C20.8712 56.1075 20.6671 55.9524 20.4966 55.7584C20.3261 55.5644 20.1926 55.3353 20.1038 55.0844C20.015 54.8335 19.9726 54.5657 19.9791 54.2965Z" fill="black"/>
<path d="M41.4122 54.8115L42.1426 24.411L52.9392 24.6704L52.2088 55.0709C52.1958 55.6125 51.9861 56.1272 51.626 56.5017C51.2658 56.8763 50.7847 57.08 50.2883 57.0681L43.2346 56.8986C42.9888 56.8927 42.7467 56.834 42.5221 56.7259C42.2976 56.6179 42.0949 56.4625 41.9257 56.2687C41.7564 56.0749 41.624 55.8464 41.5359 55.5964C41.4478 55.3464 41.4058 55.0797 41.4122 54.8115Z" fill="black"/>
<path d="M61.0296 7.00339C61.0158 7.54572 61.1498 8.07963 61.4146 8.53756C61.6794 8.99549 62.0631 9.35685 62.5171 9.57583C62.9711 9.7948 63.4751 9.86157 63.9651 9.76768C64.4551 9.6738 64.9092 9.42346 65.2699 9.04841C65.6305 8.67335 65.8815 8.19043 65.9911 7.66079C66.1006 7.13114 66.0638 6.57858 65.8853 6.0731C65.7067 5.56762 65.3945 5.13196 64.9882 4.82125C64.5818 4.51054 64.0996 4.33877 63.6026 4.32769C62.9397 4.31971 62.2992 4.59529 61.8183 5.09541C61.3374 5.59553 61.0543 6.28042 61.0296 7.00339Z" fill="black"/>
</svg>
