<svg width="132" height="100" viewBox="0 0 132 100" fill="none" xmlns="http://www.w3.org/2000/svg">
<path d="M52.1252 41.2212C51.4381 41.5207 50.8637 42.0241 50.4952 42.6499C50.1267 43.2757 49.9857 43.9871 50.095 44.6688C50.2044 45.3505 50.5577 45.9625 51.0977 46.4056C51.6377 46.8487 52.3326 47.0968 53.0699 47.1098L58.5096 59.5043L61.0196 58.4027L55.6233 46.1071C56.171 45.5764 56.5182 44.8944 56.6054 44.1775C56.6926 43.4607 56.5146 42.7535 56.1016 42.1767C55.6887 41.5999 55.0664 41.1893 54.3412 41.015C53.616 40.8407 52.8327 40.9136 52.1252 41.2212Z" fill="black"/>
<path d="M62.8766 36.5026C62.1901 36.8028 61.6166 37.3065 61.2489 37.9323C60.8813 38.5581 60.7409 39.2692 60.8507 39.9505C60.9605 40.6317 61.314 41.2432 61.8538 41.6859C62.3937 42.1286 63.0884 42.3765 63.8253 42.3895L69.2649 54.7839L71.7749 53.6823L66.3786 41.3868C66.9266 40.8558 67.2738 40.1734 67.3609 39.4562C67.4479 38.739 67.2693 38.0315 66.8558 37.4547C66.4422 36.8779 65.8193 36.4676 65.0935 36.2939C64.3676 36.1203 63.584 36.194 62.8766 36.5026Z" fill="black"/>
<path d="M77.9063 33.2349C77.6868 32.7276 77.3211 32.295 76.8484 31.9833C76.3756 31.6716 75.8135 31.4924 75.222 31.465C74.6305 31.4376 74.0319 31.5629 73.49 31.8275C72.9481 32.0922 72.4833 32.4863 72.1453 32.9677C71.8072 33.4491 71.6086 33.9998 71.5706 34.561C71.5326 35.1222 71.6567 35.6728 71.9296 36.154C72.2024 36.6352 72.6138 37.029 73.1199 37.2933C73.626 37.5576 74.2077 37.6825 74.8029 37.6546L80.2121 49.9795L82.726 48.8761L77.2944 36.5C77.7083 36.0452 77.9851 35.4978 78.0934 34.9203C78.2016 34.3429 78.1367 33.7588 77.9063 33.2349Z" fill="black"/>
<path d="M109.074 1.22736C106.594 5.41413 103.814 9.44969 100.756 13.3041C99.0215 15.4983 97.2846 17.5142 95.569 19.3723L54.0798 37.7909C49.7957 39.6948 46.1212 42.712 43.5144 46.4661C40.9076 50.2202 39.484 54.545 39.4211 58.9013L20.5843 67.1684C19.4439 66.5968 18.1185 66.3891 16.795 66.5747C15.4715 66.7603 14.2165 67.3298 13.207 68.203C12.1974 69.0762 11.4842 70.2089 11.1678 71.4417C10.8515 72.6745 10.9479 73.945 11.4435 75.0743C11.9392 76.2037 12.809 77.1348 13.9305 77.7365C15.052 78.3382 16.3685 78.5802 17.6946 78.4283C19.0207 78.2764 20.2895 77.7383 21.3221 76.8898C22.3547 76.0413 23.0991 74.9253 23.4504 73.699L40.6605 66.1458C40.8069 66.5445 40.9637 66.9344 41.1357 67.3263L41.9877 69.2675C44.0955 74.0529 48.1885 77.7311 53.3691 79.4954C58.5496 81.2596 64.3947 80.9659 69.6222 78.6786L97.9993 66.2244C102.007 64.4654 105.211 61.3194 106.905 57.4785C108.599 53.6376 108.645 49.4164 107.033 45.7436C105.421 42.0707 102.283 39.247 98.3094 37.8937C94.3356 36.5404 89.8515 36.7683 85.8436 38.5273L47.5225 55.3457C48.0927 52.9822 49.2493 50.7461 50.8951 48.8258C52.5409 46.9055 54.6276 45.3571 56.9795 44.311L99.0643 25.6311C102.338 25.6241 105.598 25.7979 108.826 26.1518C112.928 26.5987 116.972 27.3213 120.929 28.314C121.031 28.3382 121.14 28.3323 121.242 28.2971C121.344 28.2619 121.435 28.199 121.501 28.1168C121.568 28.0345 121.609 27.9367 121.617 27.8361C121.625 27.7355 121.601 27.6368 121.548 27.553L110.031 1.31003C110.004 1.21869 109.949 1.13834 109.873 1.07868C109.797 1.01903 109.702 0.982625 109.601 0.973879C109.5 0.965137 109.396 0.984419 109.303 1.0294C109.209 1.07439 109.13 1.14315 109.074 1.22736ZM88.7145 45.0688C90.8041 44.2638 93.0909 44.2284 95.102 44.9698C97.1131 45.7112 98.6946 47.1727 99.5195 49.0522C100.344 50.9316 100.349 53.085 99.5335 55.0671C98.7177 57.0492 97.1435 58.7083 95.1364 59.7012L66.7593 72.1554C63.4231 73.615 59.6928 73.8023 56.3866 72.6764C53.0804 71.5504 50.4681 69.2031 49.1227 66.1491L48.2708 64.2079C48.0988 63.816 47.9484 63.419 47.8156 63.0186L88.7145 45.0688Z" fill="black"/>
</svg>
