<svg width="99" height="119" viewBox="0 0 99 119" fill="none" xmlns="http://www.w3.org/2000/svg">
<path d="M61.4385 56.7949C63.2793 57.4088 65.2277 56.5389 65.7902 54.8519C66.3528 53.1649 65.3165 51.2997 63.4756 50.6858C61.6348 50.072 59.6864 50.9419 59.1239 52.6289C58.5613 54.3159 59.5976 56.1811 61.4385 56.7949Z" fill="black"/>
<path d="M58.0803 66.8655C59.9212 67.4794 61.8695 66.6094 62.4321 64.9225C62.9946 63.2355 61.9583 61.3703 60.1175 60.7564C58.2766 60.1425 56.3283 61.0125 55.7657 62.6995C55.2032 64.3865 56.2394 66.2517 58.0803 66.8655Z" fill="black"/>
<path d="M54.8689 76.4959C56.7097 77.1097 58.6581 76.2398 59.2206 74.5528C59.7832 72.8658 58.7469 71.0006 56.906 70.3868C55.0652 69.7729 53.1168 70.6428 52.5543 72.3298C51.9917 74.0168 53.028 75.882 54.8689 76.4959Z" fill="black"/>
<path d="M97.7272 25.294L96.7901 21.8951C96.7687 21.8071 96.7288 21.7231 96.6727 21.648C96.6167 21.5729 96.5458 21.5083 96.464 21.4578C96.3822 21.4074 96.2913 21.3722 96.1966 21.3543C96.1019 21.3364 96.0053 21.3362 95.9125 21.3536C90.4353 22.3836 85.4087 24.7261 81.3159 28.1558C77.223 31.5856 74.2016 35.9872 72.5421 40.9377L57.7733 85.2267C57.1855 86.9918 56.3058 88.648 55.1649 90.1376C54.0968 91.5728 52.6573 92.7264 50.9699 93.4996C49.2825 94.2727 47.3974 94.6422 45.4764 94.5765C44.3873 94.5291 43.3028 94.3405 42.2539 94.0163L41.9226 93.9059C39.3548 93.0273 37.2123 91.252 35.9648 88.9692C34.7174 86.6863 34.4667 84.0822 35.2678 81.7276L43.0343 58.4371C43.09 58.27 43.071 58.0857 42.9815 57.9246C42.892 57.7635 42.7393 57.6388 42.557 57.578L16.6285 48.9318C16.4462 48.871 16.2493 48.8791 16.081 48.9542C15.9127 49.0294 15.7869 49.1654 15.7311 49.3325L9.173 68.9992C6.72954 76.2322 7.48964 84.2219 11.2891 91.2423C13.2039 94.7409 15.8256 97.886 19.0022 100.495C22.1788 103.104 25.847 105.126 29.794 106.442C33.741 107.758 37.8882 108.343 41.995 108.162C46.1018 107.982 50.0865 107.04 53.7179 105.391C60.9734 102.059 66.3787 96.1241 68.7646 88.8709L78.8211 43.9085C81.8427 33.7847 88.3801 27.3295 97.7272 25.294ZM27.4984 89.4628L23.5284 87.9154C17.8806 86.0321 14.8005 80.0085 16.6491 74.4648L22.1469 57.9778C22.1963 57.8299 22.3077 57.7094 22.4567 57.6429C22.6058 57.5763 22.7802 57.5692 22.9416 57.623L31.9516 60.6275C32.032 60.6538 32.1069 60.6944 32.172 60.747C32.237 60.7996 32.291 60.8631 32.3306 60.9339C32.3703 61.0048 32.3949 61.0815 32.4031 61.1597C32.4113 61.2379 32.4029 61.3161 32.3784 61.3896L26.9907 77.5465C26.0637 80.3248 26.1664 83.3597 27.2825 86.1779L28.3276 88.7147C28.3734 88.8255 28.3845 88.9446 28.3596 89.0577C28.3347 89.1708 28.2748 89.2731 28.1871 89.3521C28.0995 89.4312 27.9879 89.4837 27.8657 89.5033C27.7435 89.5229 27.616 89.5089 27.4984 89.4628Z" fill="black"/>
</svg>
