<svg width="89" height="83" viewBox="0 0 89 83" fill="none" xmlns="http://www.w3.org/2000/svg">
<path d="M67.1019 53.0823C66.6422 53.0711 66.1894 52.9677 65.7692 52.7781C65.349 52.5886 64.9698 52.3165 64.6533 51.9775C64.3367 51.6386 64.0891 51.2394 63.9245 50.8027C63.7599 50.3661 63.6816 49.9007 63.694 49.4331L64.0744 34.5597C64.0985 33.6156 64.4903 32.7196 65.1635 32.0688C65.8368 31.418 66.7363 31.0657 67.6643 31.0895C68.5922 31.1132 69.4726 31.511 70.1117 32.1954C70.7508 32.8797 71.0962 33.7946 71.0721 34.7387L70.6917 49.612C70.6803 50.0796 70.5783 50.5405 70.3916 50.9681C70.2049 51.3957 69.9372 51.7818 69.6037 52.1041C69.2703 52.4265 68.8776 52.6788 68.4483 52.8466C68.019 53.0145 67.5615 53.0946 67.1019 53.0823Z" fill="black"/>
<path d="M19.7951 57.0784C20.2547 57.0906 20.7122 57.0126 21.1414 56.8488C21.5706 56.6849 21.9631 56.4385 22.2964 56.1236C22.6296 55.8086 22.8971 55.4314 23.0836 55.0135C23.27 54.5955 23.3718 54.1451 23.3829 53.6879L24.0741 26.6588C24.0977 25.7359 23.7517 24.8413 23.1123 24.172C22.4728 23.5026 21.5922 23.1132 20.6643 23.0895C19.7363 23.0657 18.837 23.4096 18.1641 24.0454C17.4913 24.6813 17.1 25.5569 17.0764 26.4799L16.3852 53.509C16.373 53.9661 16.4516 54.4212 16.6164 54.8481C16.7813 55.275 17.0292 55.6654 17.3459 55.997C17.6626 56.3285 18.042 56.5947 18.4623 56.7803C18.8826 56.9658 19.3355 57.0671 19.7951 57.0784Z" fill="black"/>
<path d="M3.99647 46.8977L4.00101 46.8978C6.20817 46.9542 8.036 45.4921 8.08356 43.6321L8.2692 36.3725C8.31677 34.5124 6.56606 32.9588 4.3589 32.9024L4.35436 32.9023C2.1472 32.8458 0.319382 34.3079 0.271817 36.168L0.0861757 43.4276C0.0386106 45.2876 1.78931 46.8412 3.99647 46.8977Z" fill="black"/>
<path d="M51.6687 12.3272L50.4953 12.2972C49.6499 12.2766 48.8315 12.5687 48.2198 13.1094C47.6082 13.65 47.2534 14.3949 47.2333 15.1805L47.0881 20.8594C47.0694 21.5887 46.7398 22.2802 46.1716 22.7817C45.6035 23.2832 44.8434 23.5537 44.0585 23.5336C43.2737 23.5136 42.5284 23.2046 41.9866 22.6747C41.4448 22.1448 41.151 21.4374 41.1696 20.7081L41.6026 3.77489C41.6273 2.85327 41.2687 1.95696 40.6013 1.27237C39.934 0.58779 39.0094 0.16764 38.0198 0.0992952C37.5179 0.0769305 37.0167 0.147796 36.5453 0.307732C36.074 0.467667 35.6421 0.713465 35.2749 1.03075C34.9076 1.34804 34.6124 1.73042 34.4066 2.15557C34.2007 2.58071 34.0882 3.04007 34.0758 3.50675L32.1609 78.3907C32.1298 79.3139 32.4863 80.2136 33.1548 80.8994C33.8234 81.5853 34.7518 82.0038 35.7438 82.0663C36.2458 82.0893 36.7473 82.0188 37.2188 81.8591C37.6904 81.6993 38.1226 81.4536 38.4899 81.1362C38.8573 80.8188 39.1525 80.4362 39.3581 80.0108C39.5638 79.5854 39.6759 79.1258 39.6877 78.6589L40.1227 61.6461C40.132 61.2852 40.2177 60.9298 40.375 60.6002C40.5323 60.2706 40.7581 59.9733 41.0394 59.7253C41.3208 59.4772 41.6522 59.2834 42.0148 59.1548C42.3773 59.0262 42.7638 58.9654 43.1522 58.9759C43.9363 58.9959 44.6809 59.3044 45.2226 59.8334C45.7643 60.3624 46.0587 61.0688 46.0412 61.7975L45.8959 67.4803C45.8758 68.2656 46.1923 69.0272 46.7756 69.5978C47.3589 70.1683 48.1614 70.501 49.0064 70.5226L50.1798 70.5526C51.0248 70.5743 51.8432 70.283 52.455 69.743C53.0667 69.203 53.4217 68.4585 53.4417 67.6733L54.7791 15.3735C54.7992 14.5879 54.4829 13.8258 53.8998 13.2546C53.3166 12.6834 52.5141 12.3499 51.6687 12.3272ZM46.7729 50.6143C46.7647 50.9336 46.6889 51.248 46.5499 51.5397C46.4109 51.8313 46.2113 52.0944 45.9625 52.314C45.7138 52.5336 45.4207 52.7053 45.1001 52.8194C44.7795 52.9335 44.4377 52.9877 44.0941 52.9789C43.7504 52.9701 43.4118 52.8985 43.0974 52.7682C42.7831 52.6379 42.4992 52.4514 42.262 52.2194C42.0248 51.9874 41.8389 51.7144 41.715 51.416C41.591 51.1177 41.5314 50.7998 41.5396 50.4804L42.0358 31.0759C42.0523 30.4311 42.3438 29.8197 42.8462 29.3762C43.3485 28.9328 44.0207 28.6936 44.7146 28.7113C45.4086 28.7291 46.0676 29.0023 46.5467 29.4708C47.0257 29.9394 47.2856 30.5649 47.2691 31.2098L46.7729 50.6143Z" fill="black"/>
<path d="M85.1311 44.9486C86.9878 44.3042 87.91 42.4129 87.1909 40.7241C86.4719 39.0354 84.3839 38.1888 82.5272 38.8332C80.6705 39.4776 79.7483 41.369 80.4674 43.0577C81.1864 44.7464 83.2744 45.593 85.1311 44.9486Z" fill="black"/>
</svg>
